<svg width="40.000000" height="40.000000" viewBox="0 0 40 40" fill="none" xmlns="http://www.w3.org/2000/svg" xmlns:xlink="http://www.w3.org/1999/xlink">
	<desc>
			Created with Pixso.
	</desc>
	<defs>
		<clipPath id="clip1_11">
			<rect id="Icon" rx="-0.500000" width="19.000000" height="19.000000" transform="matrix(1 0 0 -1 10.5 30.5)" fill="white" fill-opacity="0"/>
		</clipPath>
	</defs>
	<g clip-path="url(#clip1_11)">
		<path id="Vector" d="M21.17 27.5L21.17 20.66L23.47 20.66L23.8 17.98L21.17 17.98L21.17 16.28C21.17 15.89 21.25 15.58 21.41 15.34C21.57 15.1 21.93 14.98 22.48 14.98L23.88 14.98L23.88 12.59C23.58 12.57 23.26 12.54 22.92 12.52C22.59 12.5 22.25 12.5 21.91 12.5C21.9 12.5 21.88 12.5 21.87 12.5C21.86 12.5 21.84 12.5 21.83 12.5C20.82 12.5 19.99 12.8 19.35 13.4C18.71 14.01 18.39 14.88 18.39 16.03L18.39 17.98L16.11 17.98L16.11 20.66L18.39 20.66L18.39 27.5L21.17 27.5Z" fill="#00EEFF" fill-opacity="1.000000" fill-rule="nonzero"/>
	</g>
	<rect id="Link" rx="19.000000" width="38.000000" height="38.000000" transform="translate(1.000000 1.000000)" stroke="#00EEFF" stroke-opacity="1.000000" stroke-width="2.000000"/>
</svg>
