<svg width="40.000000" height="40.000000" viewBox="0 0 40 40" fill="none" xmlns="http://www.w3.org/2000/svg" xmlns:xlink="http://www.w3.org/1999/xlink">
	<desc>
			Created with Pixso.
	</desc>
	<defs>
		<clipPath id="clip1_17">
			<rect id="Icon" rx="-0.500000" width="19.000000" height="19.000000" transform="matrix(1 0 0 -1 10.5 30.5)" fill="white" fill-opacity="0"/>
		</clipPath>
	</defs>
	<g clip-path="url(#clip1_17)">
		<path id="Vector" d="M27.46 16.91C27.44 16.58 27.41 16.26 27.35 15.94C27.29 15.62 27.2 15.32 27.08 15.03L27.1 15.07C26.91 14.57 26.62 14.12 26.25 13.75C25.87 13.37 25.43 13.08 24.94 12.89L24.92 12.87C24.64 12.76 24.35 12.68 24.05 12.62C23.74 12.56 23.43 12.53 23.1 12.53L23.08 12.53C22.68 12.51 22.32 12.49 22 12.49C21.68 12.48 21.01 12.48 20 12.48C18.98 12.48 18.31 12.48 17.98 12.49C17.66 12.49 17.3 12.51 16.91 12.53C16.57 12.53 16.25 12.57 15.94 12.63C15.64 12.7 15.34 12.78 15.05 12.89L15.07 12.87C14.58 13.07 14.14 13.37 13.76 13.75C13.39 14.12 13.1 14.55 12.91 15.03L12.89 15.07C12.78 15.35 12.7 15.64 12.64 15.94C12.58 16.25 12.55 16.56 12.53 16.89C12.52 17.29 12.51 17.65 12.5 17.97C12.5 18.29 12.5 18.96 12.5 19.98C12.5 20.99 12.5 21.66 12.5 21.99C12.5 22.31 12.51 22.68 12.53 23.08C12.55 23.39 12.58 23.7 12.64 24C12.7 24.3 12.78 24.6 12.89 24.9C13.08 25.41 13.37 25.85 13.75 26.23C14.12 26.6 14.56 26.89 15.05 27.08L15.09 27.08C15.35 27.2 15.64 27.29 15.94 27.36C16.25 27.42 16.56 27.46 16.89 27.46L16.91 27.46C17.31 27.48 17.67 27.5 17.99 27.5C18.31 27.51 18.98 27.51 20 27.51C21.01 27.51 21.68 27.51 22.01 27.5C22.33 27.5 22.69 27.48 23.08 27.46C23.42 27.46 23.74 27.42 24.05 27.36C24.35 27.29 24.66 27.21 24.96 27.1L24.92 27.12C25.41 26.92 25.85 26.62 26.23 26.25C26.6 25.87 26.89 25.44 27.08 24.96L27.1 24.92C27.21 24.63 27.29 24.33 27.35 24.03C27.41 23.72 27.44 23.41 27.46 23.1C27.47 22.7 27.48 22.34 27.49 22.02C27.49 21.7 27.5 21.03 27.5 20.01C27.5 18.99 27.5 18.31 27.5 17.99C27.5 17.67 27.48 17.31 27.46 16.91ZM20 23.82C19.46 23.82 18.96 23.73 18.49 23.53C18.02 23.32 17.61 23.05 17.26 22.7C16.91 22.36 16.64 21.95 16.44 21.48C16.23 21.01 16.13 20.51 16.13 19.98C16.13 19.44 16.23 18.94 16.44 18.47C16.64 18 16.91 17.6 17.26 17.25C17.61 16.91 18.02 16.63 18.49 16.42C18.96 16.23 19.46 16.13 20 16.13C20.53 16.13 21.03 16.23 21.5 16.42C21.95 16.63 22.36 16.91 22.71 17.25C23.06 17.6 23.33 18 23.53 18.47C23.74 18.94 23.84 19.44 23.84 19.98C23.84 20.51 23.74 21.01 23.53 21.48C23.33 21.95 23.06 22.36 22.71 22.7C22.36 23.05 21.95 23.32 21.5 23.53C21.03 23.73 20.53 23.82 20 23.82ZM24 16.89C23.75 16.89 23.54 16.8 23.36 16.63C23.19 16.45 23.1 16.24 23.1 15.99C23.1 15.74 23.19 15.53 23.36 15.36C23.54 15.18 23.75 15.09 24 15.09C24.25 15.09 24.46 15.18 24.63 15.36C24.81 15.53 24.9 15.74 24.9 15.99C24.9 16.24 24.81 16.45 24.63 16.63C24.46 16.8 24.25 16.89 24 16.89ZM22.5 19.98C22.5 20.67 22.25 21.25 21.76 21.74C21.27 22.23 20.69 22.48 20 22.48C19.3 22.48 18.72 22.23 18.23 21.74C17.74 21.25 17.5 20.67 17.5 19.98C17.5 19.29 17.74 18.7 18.23 18.21C18.72 17.72 19.3 17.48 20 17.48C20.69 17.48 21.27 17.72 21.76 18.21C22.25 18.7 22.5 19.29 22.5 19.98Z" fill="#00EEFF" fill-opacity="1.000000" fill-rule="nonzero"/>
	</g>
	<rect id="Link" rx="19.000000" width="38.000000" height="38.000000" transform="translate(1.000000 1.000000)" stroke="#00EEFF" stroke-opacity="1.000000" stroke-width="2.000000"/>
</svg>
