<svg width="40.000000" height="40.000000" viewBox="0 0 40 40" fill="none" xmlns="http://www.w3.org/2000/svg" xmlns:xlink="http://www.w3.org/1999/xlink">
	<desc>
			Created with Pixso.
	</desc>
	<defs>
		<clipPath id="clip1_20">
			<rect id="Icon" rx="-0.500000" width="19.000000" height="19.000000" transform="matrix(1 0 0 -1 10.5 30.5)" fill="white" fill-opacity="0"/>
		</clipPath>
	</defs>
	<g clip-path="url(#clip1_20)">
		<path id="Vector" d="M15.97 14.17C15.97 14.67 15.79 15.1 15.43 15.45C15.08 15.81 14.65 15.99 14.16 15.99C13.65 15.99 13.21 15.81 12.86 15.45C12.5 15.1 12.32 14.67 12.32 14.17C12.32 13.67 12.5 13.23 12.86 12.88C13.21 12.52 13.65 12.34 14.16 12.34C14.65 12.34 15.08 12.52 15.43 12.88C15.79 13.23 15.97 13.67 15.97 14.17ZM17.69 17.38L17.69 27.5L20.83 27.5L20.83 22.5C20.83 21.83 20.95 21.23 21.17 20.7C21.39 20.16 21.9 19.9 22.71 19.9C23.52 19.9 23.99 20.2 24.14 20.8C24.28 21.39 24.35 21.99 24.35 22.57L24.35 27.5L27.5 27.5L27.5 21.95C27.5 20.58 27.26 19.44 26.8 18.51C26.34 17.59 25.31 17.12 23.73 17.12C22.96 17.12 22.32 17.3 21.82 17.64C21.32 17.99 20.97 18.36 20.76 18.76L20.7 18.76L20.7 17.38L17.69 17.38ZM12.57 17.38L15.72 17.38L15.72 27.5L12.57 27.5L12.57 17.38Z" fill="#00EEFF" fill-opacity="1.000000" fill-rule="nonzero"/>
	</g>
	<rect id="Link" rx="19.000000" width="38.000000" height="38.000000" transform="translate(1.000000 1.000000)" stroke="#00EEFF" stroke-opacity="1.000000" stroke-width="2.000000"/>
</svg>
