<svg width="40.000000" height="40.000000" viewBox="0 0 40 40" fill="none" xmlns="http://www.w3.org/2000/svg" xmlns:xlink="http://www.w3.org/1999/xlink">
	<desc>
			Created with Pixso.
	</desc>
	<defs>
		<clipPath id="clip1_14">
			<rect id="Icon" rx="-0.500000" width="19.000000" height="19.000000" transform="matrix(1 0 0 -1 10.5 30.5)" fill="white" fill-opacity="0"/>
		</clipPath>
	</defs>
	<g clip-path="url(#clip1_14)">
		<path id="Vector" d="M26.36 16.66C26.36 16.73 26.36 16.81 26.36 16.88C26.36 16.95 26.36 17.03 26.36 17.1C26.36 18.21 26.15 19.33 25.74 20.46C25.32 21.6 24.71 22.62 23.9 23.54C23.09 24.46 22.1 25.2 20.91 25.78C19.73 26.36 18.36 26.66 16.81 26.66C15.86 26.66 14.95 26.52 14.08 26.25C13.2 25.99 12.4 25.61 11.66 25.13C11.8 25.16 11.94 25.17 12.07 25.17C12.2 25.17 12.33 25.17 12.48 25.17C12.48 25.17 12.48 25.17 12.5 25.17C13.28 25.17 14.02 25.04 14.73 24.79C15.44 24.54 16.08 24.18 16.66 23.73L16.64 23.75C15.91 23.73 15.26 23.51 14.69 23.08C14.13 22.65 13.73 22.1 13.51 21.44L13.51 21.42C13.6 21.43 13.7 21.45 13.81 21.46C13.92 21.47 14.03 21.48 14.14 21.48C14.29 21.48 14.44 21.47 14.58 21.44C14.73 21.41 14.87 21.39 15.01 21.36C14.25 21.19 13.61 20.8 13.09 20.19C12.58 19.58 12.32 18.87 12.32 18.06L12.32 18.02C12.55 18.14 12.8 18.24 13.05 18.32C13.31 18.39 13.57 18.44 13.84 18.45C13.39 18.14 13.02 17.74 12.75 17.25C12.48 16.76 12.34 16.23 12.34 15.66C12.34 15.35 12.38 15.05 12.47 14.76C12.55 14.47 12.66 14.21 12.81 13.96C13.22 14.47 13.69 14.93 14.19 15.35C14.7 15.76 15.25 16.12 15.83 16.42C16.42 16.72 17.04 16.96 17.69 17.14C18.34 17.33 19.01 17.44 19.7 17.48L19.72 17.48C19.7 17.35 19.68 17.21 19.66 17.08C19.65 16.95 19.64 16.82 19.64 16.69C19.64 15.77 19.97 14.98 20.63 14.32C21.29 13.66 22.08 13.33 23 13.33C23.48 13.33 23.94 13.43 24.36 13.63C24.78 13.82 25.14 14.08 25.44 14.41C25.85 14.33 26.23 14.22 26.59 14.08C26.94 13.93 27.29 13.76 27.61 13.57L27.57 13.59C27.44 13.99 27.25 14.35 27.01 14.66C26.76 14.98 26.47 15.24 26.13 15.44L26.11 15.44C26.46 15.41 26.8 15.34 27.13 15.25C27.47 15.16 27.78 15.04 28.08 14.9L28.04 14.92C27.81 15.26 27.55 15.57 27.27 15.85C26.99 16.14 26.69 16.4 26.38 16.64L26.36 16.66Z" fill="#00EEFF" fill-opacity="1.000000" fill-rule="nonzero"/>
	</g>
	<rect id="Link" rx="19.000000" width="38.000000" height="38.000000" transform="translate(1.000000 1.000000)" stroke="#00EEFF" stroke-opacity="1.000000" stroke-width="2.000000"/>
</svg>
